<?xml version="1.0" encoding="utf-8"?>
<!-- Generator: Adobe Illustrator 18.0.0, SVG Export Plug-In . SVG Version: 6.00 Build 0)  -->
<!DOCTYPE svg PUBLIC "-//W3C//DTD SVG 1.1//EN" "http://www.w3.org/Graphics/SVG/1.1/DTD/svg11.dtd">
<svg version="1.1" id="Calque_1" xmlns="http://www.w3.org/2000/svg" xmlns:xlink="http://www.w3.org/1999/xlink" x="0px" y="0px"
	 viewBox="0 0 1645.5 511" style="enable-background:new 0 0 1645.5 511;" xml:space="preserve">
<style type="text/css">
	.st0{fill:#FFFFFF;}
	.st1{fill:#4A90E2;}
</style>
<g>
	<path class="st0" d="M383,255.6c-40.7,0-81.3,0.1-122-0.1c-4.8,0-5.6,1.5-5.6,5.8c0.1,75.3,0.1,150.6,0,226c0,4.8,1,6.2,5.9,5.9
		c83.5-4.1,148.4-40.7,194.6-110.4c2-3,3.4-4.3,6.6-1.7c3.3,2.7,9.5,3.7,10.2,7.2c0.8,3.8-3.8,7.6-6.4,11.2
		c-42.5,60.8-100.3,98-173.8,108.4C212,519.5,140.9,497.1,81.1,442c-43.1-39.8-69.6-89.3-78-147.5c-11.6-80.6,9.9-151.8,64.7-212
		c40-44,89.9-71,148.9-79.3C302.6-9,377,16,438.2,77.5c39.1,39.2,62.1,87.1,70,142c1.5,10.4,2,20.8,2.7,31.3c0.3,4-1,5-4.9,5
		C465,255.6,424,255.6,383,255.6z"/>
	<path class="st0" d="M828.9,255.7c0,77.3,0.1,154.6-0.1,232c0,4.7,1.4,5.7,5.7,5.5c61-2.4,114-23.9,158.4-66
		c7.9-7.5,15.2-15.4,21.8-24c2.1-2.7,3.6-3.9,6.5-1c2,2,4.3,3.8,6.7,5.2c3.5,2.1,3.8,3.7,1.1,7.1c-42.5,52.2-96.6,84.3-163.4,93.8
		c-109.9,15.7-214.5-38.8-265.1-138c-22.9-44.8-31.7-92.7-25.4-142.8c11.4-90.5,58.2-157.1,138.5-199.7C755.8,5.1,801.7-3,849.6,1
		c58.1,4.8,108.6,26.9,151.7,66c10.4,9.4,19.7,19.8,28.5,30.7c1.9,2.3,2,3.6-0.7,5.3c-2.8,1.8-5.5,3.8-7.9,6.1c-2.5,2.3-4,2-6.1-0.8
		c-17.7-22.7-38.9-41.5-63.6-56.3c-36.3-21.8-75.6-33.1-117.9-34.1c-4-0.1-4.9,1-4.8,4.9C828.9,100.4,828.9,178.1,828.9,255.7z"/>
	<path class="st0" d="M1465.2,493.6c-1.8,0-3.6,0-5.4,0c-60.6,0-121.3-0.1-181.9,0.1c-4.4,0-6.3-1.5-8-5.3
		c-70-156.3-140.1-312.6-210.2-468.8c-2.2-4.9-2.2-5,3.1-5c62,0,124,0,185.9-0.1c3.3,0,5,0.9,6.3,4
		c69.5,156.7,139.2,313.3,208.7,470C1464.4,490,1465.6,491.4,1465.2,493.6z"/>
	<path class="st1" d="M1547.3,249.8c-63.2-0.8-112.2-44.1-123-100.4C1410.7,78.8,1456.5,12.6,1528.1,2c46.7-6.9,85.6,9.6,115.9,46
		c1.9,2.3,1.8,4.3,0.7,6.8c-18.2,40.6-36.3,81.3-54.4,121.9c-9.8,22-19.9,43.9-29.3,66c-2.2,5.2-5.2,7-10.3,6.8
		C1549.3,249.5,1548,249.7,1547.3,249.8z"/>
</g>
</svg>
